<?xml version="1.0" encoding="UTF-8" standalone="no"?>
<svg xmlns="http://www.w3.org/2000/svg" viewBox="-150 -10 280 280" fill="#f3f4f5">
  <g transform="translate(-1340 -563)">
    <g transform="matrix(0.423333,0,0,0.423333,706.699,316.183)">
      <g>
        <path d="M1546.56,703.717C1544.21,705.087 1541.31,705.092 1538.95,703.732C1532.55,700.038 1519.41,692.448 1509.83,686.917C1507.48,685.563 1506.04,683.062 1506.03,680.354C1506.03,677.647 1507.47,675.144 1509.82,673.786C1523.68,665.752 1548.28,651.503 1572.3,637.588C1586,629.653 1602.89,629.636 1616.6,637.542C1630.31,645.449 1638.76,660.075 1638.75,675.903C1638.74,703.692 1638.74,732.156 1638.73,748.205C1638.73,750.915 1637.28,753.418 1634.94,754.772C1632.59,756.126 1629.7,756.126 1627.35,754.771C1617.77,749.237 1604.62,741.647 1598.23,737.957C1595.88,736.601 1594.43,734.094 1594.44,731.382C1594.44,723.518 1594.46,706.611 1594.47,693.494C1594.48,689.854 1592.53,686.49 1589.38,684.675C1586.22,682.86 1582.34,682.871 1579.19,684.703C1567.89,691.287 1553.35,699.763 1546.56,703.717Z"></path>
        <g transform="matrix(-0.5,0.866025,-0.866025,-0.5,2976.98,41.9634)">
          <path d="M1546.9,703.321C1544.56,704.68 1541.66,704.681 1539.31,703.325C1532.92,699.635 1519.78,692.045 1510.19,686.511C1507.84,685.156 1506.4,682.653 1506.4,679.944C1506.4,677.235 1507.84,674.731 1510.19,673.376C1524.04,665.372 1548.57,651.201 1572.51,637.366C1586.19,629.46 1603.05,629.448 1616.75,637.334C1630.44,645.221 1638.89,659.809 1638.92,675.612C1638.97,703.321 1639.02,731.719 1639.05,747.758C1639.06,750.47 1637.61,752.978 1635.26,754.336C1632.92,755.695 1630.02,755.696 1627.67,754.34C1618.08,748.799 1604.93,741.208 1598.55,737.527C1596.22,736.179 1594.77,733.693 1594.76,730.996C1594.72,723.175 1594.64,706.346 1594.58,693.312C1594.56,689.689 1592.61,686.348 1589.47,684.546C1586.32,682.743 1582.46,682.75 1579.32,684.565C1568.11,691.054 1553.66,699.414 1546.9,703.321Z"></path>
        </g>
        <g transform="matrix(-0.5,-0.866025,0.866025,-0.5,1452.15,2599.13)">
          <path d="M1546.36,703.264C1544.02,704.6 1541.14,704.593 1538.81,703.245C1532.43,699.565 1519.28,691.973 1509.68,686.432C1507.34,685.076 1505.89,682.569 1505.89,679.857C1505.89,677.145 1507.35,674.641 1509.7,673.289C1523.62,665.286 1548.28,651.108 1572.34,637.273C1586.05,629.393 1602.92,629.422 1616.6,637.35C1630.28,645.278 1638.69,659.901 1638.67,675.713C1638.62,703.385 1638.58,731.72 1638.56,747.713C1638.56,750.421 1637.11,752.921 1634.76,754.273C1632.42,755.625 1629.53,755.624 1627.18,754.27C1617.6,748.739 1604.46,741.15 1598.06,737.455C1595.7,736.095 1594.26,733.577 1594.27,730.856C1594.3,723.043 1594.37,706.347 1594.42,693.376C1594.43,689.746 1592.51,686.384 1589.38,684.556C1586.24,682.727 1582.37,682.709 1579.22,684.508C1567.85,690.997 1553.17,699.376 1546.36,703.264Z"></path>
        </g>
        <g transform="matrix(-0.5,0.866025,-0.866025,-0.5,2976.98,41.9634)">
          <path d="M1672.61,805.876C1670.26,804.516 1667.37,804.513 1665.02,805.867C1662.67,807.221 1661.22,809.727 1661.22,812.438L1661.22,846.064C1661.22,848.763 1662.65,851.258 1664.99,852.617C1671.73,856.548 1686.22,864.994 1697.46,871.54C1700.59,873.365 1702.51,876.719 1702.51,880.342C1702.5,883.966 1700.56,887.312 1697.42,889.124C1651.85,915.434 1517.3,993.119 1483.93,1012.38C1479.26,1015.08 1473.5,1015.08 1468.83,1012.37C1452.12,1002.67 1411.89,979.328 1392.1,967.842C1389.75,966.481 1386.86,966.476 1384.51,967.83C1382.16,969.184 1380.71,971.69 1380.71,974.402L1380.71,1008.01C1380.71,1010.71 1382.15,1013.21 1384.49,1014.57C1395.89,1021.19 1430.63,1041.34 1453.97,1054.89C1467.83,1062.93 1484.93,1062.95 1498.81,1054.93C1546.88,1027.18 1661.4,961.063 1734.9,918.631C1748.58,910.73 1757.02,896.132 1757.03,880.33C1757.04,864.528 1748.63,849.918 1734.95,841.996C1711.01,828.122 1686.47,813.907 1672.61,805.876Z"></path>
        </g>
        <g transform="matrix(-0.5,-0.866025,0.866025,-0.5,1452.1,2599.13)">
          <path d="M1672.04,805.8C1669.69,804.445 1666.8,804.445 1664.45,805.8C1662.1,807.155 1660.66,809.659 1660.66,812.368L1660.66,845.996C1660.66,848.706 1662.1,851.21 1664.45,852.565C1671.28,856.505 1685.98,864.994 1697.35,871.561C1700.5,873.376 1702.43,876.732 1702.43,880.363C1702.43,883.994 1700.5,887.349 1697.35,889.165C1651.71,915.519 1517.23,993.158 1483.91,1012.39C1479.25,1015.09 1473.51,1015.09 1468.84,1012.39C1452.04,1002.7 1411.43,979.245 1391.52,967.754C1389.18,966.399 1386.29,966.399 1383.94,967.754C1381.59,969.109 1380.15,971.612 1380.15,974.322L1380.15,1007.95C1380.15,1010.66 1381.59,1013.16 1383.94,1014.52C1395.43,1021.15 1430.51,1041.41 1454,1054.97C1467.85,1062.96 1484.91,1062.96 1498.76,1054.97C1546.77,1027.25 1661.26,961.148 1734.79,918.697C1748.48,910.79 1756.92,896.177 1756.92,880.363C1756.92,864.549 1748.48,849.936 1734.79,842.029C1710.68,828.111 1685.96,813.841 1672.04,805.8Z"></path>
        </g>
        <path d="M1672.24,806.228C1669.89,804.879 1667,804.883 1664.66,806.238C1662.31,807.594 1660.87,810.096 1660.87,812.803L1660.87,846.434C1660.87,849.157 1662.33,851.671 1664.69,853.021C1671.48,856.89 1685.95,865.152 1697.22,871.586C1700.38,873.391 1702.34,876.748 1702.35,880.388C1702.36,884.028 1700.42,887.395 1697.27,889.215C1651.53,915.624 1517.15,993.206 1483.89,1012.41C1479.24,1015.09 1473.51,1015.1 1468.86,1012.43C1452.09,1002.81 1411.58,979.562 1391.72,968.166C1389.37,966.819 1386.48,966.825 1384.14,968.181C1381.8,969.537 1380.36,972.038 1380.36,974.744L1380.36,1008.4C1380.36,1011.12 1381.81,1013.62 1384.17,1014.98C1395.66,1021.57 1430.62,1041.63 1454.03,1054.97C1467.87,1063 1484.88,1062.98 1498.69,1055.01C1546.63,1027.33 1661.08,961.252 1734.64,918.777C1748.35,910.863 1756.79,896.232 1756.78,880.403C1756.76,864.575 1748.3,849.959 1734.58,842.07C1710.61,828.289 1686.08,814.189 1672.24,806.228Z"></path>
      </g>
    </g>
  </g>
</svg>